{
    "asset" : {
        "generator" : "Khronos glTF Blender I/O v3.4.50",
        "version" : "2.0"
    },
    "scene" : 0,
    "scenes" : [
        {
            "name" : "Scene",
            "nodes" : [
                0
            ]
        }
    ],
    "nodes" : [
        {
            "mesh" : 0,
            "name" : "polySurface1400000001",
            "rotation" : [
                0.70710688829422,
                0,
                0,
                0.7071066498756409
            ]
        }
    ],
    "materials" : [
        {
            "doubleSided" : true,
            "name" : "lambert2",
            "normalTexture" : {
                "index" : 0,
                "scale" : 0
            },
            "pbrMetallicRoughness" : {
                "baseColorTexture" : {
                    "index" : 1
                },
                "metallicFactor" : 0,
                "roughnessFactor" : 0.5527864098548889
            }
        }
    ],
    "meshes" : [
        {
            "name" : "Mesh",
            "primitives" : [
                {
                    "attributes" : {
                        "POSITION" : 0,
                        "TEXCOORD_0" : 1,
                        "NORMAL" : 2
                    },
                    "indices" : 3,
                    "material" : 0
                }
            ]
        }
    ],
    "textures" : [
        {
            "sampler" : 0,
            "source" : 0
        },
        {
            "sampler" : 0,
            "source" : 1
        }
    ],
    "images" : [
        {
            "bufferView" : 4,
            "mimeType" : "image/png",
            "name" : "240125_bearista_v023_lambert2_Normal"
        },
        {
            "bufferView" : 5,
            "mimeType" : "image/png",
            "name" : "240125_bearista_v023_lambert2_AlbedoTransparency"
        }
    ],
    "accessors" : [
        {
            "bufferView" : 0,
            "componentType" : 5126,
            "count" : 15332,
            "max" : [
                2.2486460208892822,
                1.3756463527679443,
                -0.01078772358596325
            ],
            "min" : [
                -2.2486462593078613,
                -1.4383879899978638,
                -6.150760173797607
            ],
            "type" : "VEC3"
        },
        {
            "bufferView" : 1,
            "componentType" : 5126,
            "count" : 15332,
            "type" : "VEC2"
        },
        {
            "bufferView" : 2,
            "componentType" : 5126,
            "count" : 15332,
            "type" : "VEC3"
        },
        {
            "bufferView" : 3,
            "componentType" : 5123,
            "count" : 82278,
            "type" : "SCALAR"
        }
    ],
    "bufferViews" : [
        {
            "buffer" : 0,
            "byteLength" : 183984,
            "byteOffset" : 0,
            "target" : 34962
        },
        {
            "buffer" : 0,
            "byteLength" : 122656,
            "byteOffset" : 183984,
            "target" : 34962
        },
        {
            "buffer" : 0,
            "byteLength" : 183984,
            "byteOffset" : 306640,
            "target" : 34962
        },
        {
            "buffer" : 0,
            "byteLength" : 164556,
            "byteOffset" : 490624,
            "target" : 34963
        },
        {
            "buffer" : 0,
            "byteLength" : 121344,
            "byteOffset" : 655180
        },
        {
            "buffer" : 0,
            "byteLength" : 84722,
            "byteOffset" : 776524
        }
    ],
    "samplers" : [
        {
            "magFilter" : 9729,
            "minFilter" : 9987
        }
    ],
    "buffers" : [
        {
            "byteLength" : 861248,
            "uri" : "data:application/octet-stream;base64,"
        }
    ]
}
