{
    "asset" : {
        "copyright" : "CultureConnection",
        "generator" : "Khronos glTF Blender I/O v1.8.19",
        "version" : "2.0"
    },
    "scene" : 0,
    "scenes" : [
        {
            "name" : "Scene",
            "nodes" : [
                5
            ]
        }
    ],
    "nodes" : [
        {
            "name" : "Wing_R",
            "rotation" : [
                -0.31961336731910706,
                0.42095962166786194,
                0.4885926842689514,
                0.6942028999328613
            ],
            "scale" : [
                0.999984622001648,
                0.9999838471412659,
                0.9999868273735046
            ],
            "translation" : [
                -0.0530884675681591,
                0.18620043992996216,
                0.03274994343519211
            ]
        },
        {
            "name" : "Wing_L",
            "rotation" : [
                -0.31961333751678467,
                -0.42095962166786194,
                -0.4885927140712738,
                0.6942028403282166
            ],
            "scale" : [
                0.9999846816062927,
                0.9999837875366211,
                0.9999868273735046
            ],
            "translation" : [
                0.0530884712934494,
                0.18620042502880096,
                0.03274993225932121
            ]
        },
        {
            "children" : [
                0,
                1
            ],
            "name" : "Wings",
            "rotation" : [
                -0.7361634373664856,
                3.895248826351575e-16,
                -1.636169538202544e-17,
                0.6768038868904114
            ],
            "translation" : [
                -1.6504165662009125e-16,
                0.04169085621833801,
                -0.19312834739685059
            ]
        },
        {
            "children" : [
                2
            ],
            "name" : "Body",
            "rotation" : [
                0.7361632585525513,
                0,
                0,
                0.6768040657043457
            ],
            "scale" : [
                1,
                0.9999999403953552,
                1.0000122785568237
            ],
            "translation" : [
                -0.0023632163647562265,
                -0.009999901056289673,
                -0.058229975402355194
            ]
        },
        {
            "mesh" : 0,
            "name" : "RedBee",
            "skin" : 0
        },
        {
            "children" : [
                4,
                3
            ],
            "name" : "FoM_Tree_Bee_Red-001"
        }
    ],
    "animations" : [
        {
            "channels" : [
                {
                    "sampler" : 0,
                    "target" : {
                        "node" : 0,
                        "path" : "translation"
                    }
                },
                {
                    "sampler" : 1,
                    "target" : {
                        "node" : 0,
                        "path" : "rotation"
                    }
                },
                {
                    "sampler" : 2,
                    "target" : {
                        "node" : 2,
                        "path" : "translation"
                    }
                },
                {
                    "sampler" : 3,
                    "target" : {
                        "node" : 3,
                        "path" : "translation"
                    }
                },
                {
                    "sampler" : 4,
                    "target" : {
                        "node" : 1,
                        "path" : "translation"
                    }
                },
                {
                    "sampler" : 5,
                    "target" : {
                        "node" : 1,
                        "path" : "rotation"
                    }
                }
            ],
            "name" : "Red_BeeAction.001",
            "samplers" : [
                {
                    "input" : 8,
                    "interpolation" : "LINEAR",
                    "output" : 9
                },
                {
                    "input" : 10,
                    "interpolation" : "LINEAR",
                    "output" : 11
                },
                {
                    "input" : 8,
                    "interpolation" : "LINEAR",
                    "output" : 12
                },
                {
                    "input" : 10,
                    "interpolation" : "LINEAR",
                    "output" : 13
                },
                {
                    "input" : 8,
                    "interpolation" : "LINEAR",
                    "output" : 14
                },
                {
                    "input" : 10,
                    "interpolation" : "LINEAR",
                    "output" : 15
                }
            ]
        }
    ],
    "materials" : [
        {
            "doubleSided" : true,
            "name" : "Bee_Red.002",
            "pbrMetallicRoughness" : {
                "baseColorTexture" : {
                    "index" : 0
                },
                "metallicFactor" : 0,
                "metallicRoughnessTexture" : {
                    "index" : 1
                }
            }
        }
    ],
    "meshes" : [
        {
            "name" : "\ud050\ube0c.015",
            "primitives" : [
                {
                    "attributes" : {
                        "POSITION" : 0,
                        "NORMAL" : 1,
                        "TEXCOORD_0" : 2,
                        "TEXCOORD_1" : 3,
                        "JOINTS_0" : 4,
                        "WEIGHTS_0" : 5
                    },
                    "indices" : 6,
                    "material" : 0
                }
            ]
        }
    ],
    "textures" : [
        {
            "sampler" : 0,
            "source" : 0
        },
        {
            "sampler" : 0,
            "source" : 1
        }
    ],
    "images" : [
        {
            "bufferView" : 7,
            "mimeType" : "image/png",
            "name" : "Bee_Base_color+\uff14"
        },
        {
            "bufferView" : 8,
            "mimeType" : "image/png",
            "name" : "Bee_Roughness"
        }
    ],
    "skins" : [
        {
            "inverseBindMatrices" : 7,
            "joints" : [
                3,
                2,
                0,
                1
            ],
            "name" : "FoM_Tree_Bee_Red-001"
        }
    ],
    "accessors" : [
        {
            "bufferView" : 0,
            "componentType" : 5126,
            "count" : 4118,
            "max" : [
                0.43378016352653503,
                0.7268727421760559,
                0.5602948069572449
            ],
            "min" : [
                -0.43378016352653503,
                -0.2617618143558502,
                -0.8082630634307861
            ],
            "type" : "VEC3"
        },
        {
            "bufferView" : 1,
            "componentType" : 5126,
            "count" : 4118,
            "type" : "VEC3"
        },
        {
            "bufferView" : 2,
            "componentType" : 5126,
            "count" : 4118,
            "type" : "VEC2"
        },
        {
            "bufferView" : 3,
            "componentType" : 5126,
            "count" : 4118,
            "type" : "VEC2"
        },
        {
            "bufferView" : 4,
            "componentType" : 5121,
            "count" : 4118,
            "type" : "VEC4"
        },
        {
            "bufferView" : 5,
            "componentType" : 5126,
            "count" : 4118,
            "type" : "VEC4"
        },
        {
            "bufferView" : 6,
            "componentType" : 5123,
            "count" : 20304,
            "type" : "SCALAR"
        },
        {
            "bufferView" : 9,
            "componentType" : 5126,
            "count" : 4,
            "type" : "MAT4"
        },
        {
            "bufferView" : 10,
            "componentType" : 5126,
            "count" : 2,
            "max" : [
                2.5
            ],
            "min" : [
                0
            ],
            "type" : "SCALAR"
        },
        {
            "bufferView" : 11,
            "componentType" : 5126,
            "count" : 2,
            "type" : "VEC3"
        },
        {
            "bufferView" : 12,
            "componentType" : 5126,
            "count" : 61,
            "max" : [
                2.5
            ],
            "min" : [
                0
            ],
            "type" : "SCALAR"
        },
        {
            "bufferView" : 13,
            "componentType" : 5126,
            "count" : 61,
            "type" : "VEC4"
        },
        {
            "bufferView" : 14,
            "componentType" : 5126,
            "count" : 2,
            "type" : "VEC3"
        },
        {
            "bufferView" : 15,
            "componentType" : 5126,
            "count" : 61,
            "type" : "VEC3"
        },
        {
            "bufferView" : 16,
            "componentType" : 5126,
            "count" : 2,
            "type" : "VEC3"
        },
        {
            "bufferView" : 17,
            "componentType" : 5126,
            "count" : 61,
            "type" : "VEC4"
        }
    ],
    "bufferViews" : [
        {
            "buffer" : 0,
            "byteLength" : 49416,
            "byteOffset" : 0
        },
        {
            "buffer" : 0,
            "byteLength" : 49416,
            "byteOffset" : 49416
        },
        {
            "buffer" : 0,
            "byteLength" : 32944,
            "byteOffset" : 98832
        },
        {
            "buffer" : 0,
            "byteLength" : 32944,
            "byteOffset" : 131776
        },
        {
            "buffer" : 0,
            "byteLength" : 16472,
            "byteOffset" : 164720
        },
        {
            "buffer" : 0,
            "byteLength" : 65888,
            "byteOffset" : 181192
        },
        {
            "buffer" : 0,
            "byteLength" : 40608,
            "byteOffset" : 247080
        },
        {
            "buffer" : 0,
            "byteLength" : 29953,
            "byteOffset" : 287688
        },
        {
            "buffer" : 0,
            "byteLength" : 5815,
            "byteOffset" : 317644
        },
        {
            "buffer" : 0,
            "byteLength" : 256,
            "byteOffset" : 323460
        },
        {
            "buffer" : 0,
            "byteLength" : 8,
            "byteOffset" : 323716
        },
        {
            "buffer" : 0,
            "byteLength" : 24,
            "byteOffset" : 323724
        },
        {
            "buffer" : 0,
            "byteLength" : 244,
            "byteOffset" : 323748
        },
        {
            "buffer" : 0,
            "byteLength" : 976,
            "byteOffset" : 323992
        },
        {
            "buffer" : 0,
            "byteLength" : 24,
            "byteOffset" : 324968
        },
        {
            "buffer" : 0,
            "byteLength" : 732,
            "byteOffset" : 324992
        },
        {
            "buffer" : 0,
            "byteLength" : 24,
            "byteOffset" : 325724
        },
        {
            "buffer" : 0,
            "byteLength" : 976,
            "byteOffset" : 325748
        }
    ],
    "samplers" : [
        {
            "magFilter" : 9729,
            "minFilter" : 9987
        }
    ],
    "buffers" : [
        {
            "byteLength" : 326724,
            "uri" : "data:application/octet-stream;base64,"
        }
    ]
}
