{
    "asset" : {
        "copyright" : "CultureConnection",
        "generator" : "Khronos glTF Blender I/O v1.8.19",
        "version" : "2.0"
    },
    "scene" : 0,
    "scenes" : [
        {
            "name" : "Scene",
            "nodes" : [
                5
            ]
        }
    ],
    "nodes" : [
        {
            "name" : "Wing_R",
            "rotation" : [
                -0.26037129759788513,
                0.42996254563331604,
                0.4299657344818115,
                0.7499789595603943
            ],
            "scale" : [
                1.0000001192092896,
                1,
                1.000000238418579
            ],
            "translation" : [
                -0.14549696445465088,
                0.31226688623428345,
                0.00863143801689148
            ]
        },
        {
            "name" : "Wing_L",
            "rotation" : [
                -0.2603713572025299,
                -0.42996254563331604,
                -0.42996570467948914,
                0.7499790191650391
            ],
            "scale" : [
                1.0000001192092896,
                0.9999999403953552,
                1.0000001192092896
            ],
            "translation" : [
                0.14549694955348969,
                0.31226685643196106,
                0.008631409145891666
            ]
        },
        {
            "children" : [
                0,
                1
            ],
            "name" : "Wings",
            "rotation" : [
                -0.04197362810373306,
                -8.609287505123575e-08,
                -1.3868246551140828e-09,
                0.9991188049316406
            ],
            "scale" : [
                1,
                0.9999998807907104,
                0.9999998211860657
            ],
            "translation" : [
                -9.803502010186094e-09,
                0.3809569478034973,
                0.08223775029182434
            ]
        },
        {
            "children" : [
                2
            ],
            "name" : "Body",
            "rotation" : [
                0.041973333805799484,
                5.955210724550852e-08,
                2.501805207444363e-09,
                0.9991187453269958
            ],
            "scale" : [
                1,
                1.0000123977661133,
                0.9999999403953552
            ],
            "translation" : [
                0,
                0.043020687997341156,
                -0.12708312273025513
            ]
        },
        {
            "mesh" : 0,
            "name" : "BodyGreen",
            "skin" : 0
        },
        {
            "children" : [
                4,
                3
            ],
            "name" : "FoM_Bee_Green-001",
            "rotation" : [
                -0.08715574443340302,
                0,
                0,
                0.9961947202682495
            ]
        }
    ],
    "animations" : [
        {
            "channels" : [
                {
                    "sampler" : 0,
                    "target" : {
                        "node" : 0,
                        "path" : "rotation"
                    }
                },
                {
                    "sampler" : 1,
                    "target" : {
                        "node" : 1,
                        "path" : "rotation"
                    }
                },
                {
                    "sampler" : 2,
                    "target" : {
                        "node" : 5,
                        "path" : "translation"
                    }
                },
                {
                    "sampler" : 3,
                    "target" : {
                        "node" : 5,
                        "path" : "rotation"
                    }
                }
            ],
            "name" : "Bee.004Action",
            "samplers" : [
                {
                    "input" : 8,
                    "interpolation" : "LINEAR",
                    "output" : 9
                },
                {
                    "input" : 8,
                    "interpolation" : "LINEAR",
                    "output" : 10
                },
                {
                    "input" : 8,
                    "interpolation" : "LINEAR",
                    "output" : 11
                },
                {
                    "input" : 8,
                    "interpolation" : "LINEAR",
                    "output" : 12
                }
            ]
        }
    ],
    "materials" : [
        {
            "doubleSided" : true,
            "name" : "Bee_Green",
            "pbrMetallicRoughness" : {
                "baseColorTexture" : {
                    "index" : 0
                },
                "metallicFactor" : 0,
                "metallicRoughnessTexture" : {
                    "index" : 1
                }
            }
        }
    ],
    "meshes" : [
        {
            "name" : "\ud050\ube0c.011",
            "primitives" : [
                {
                    "attributes" : {
                        "POSITION" : 0,
                        "NORMAL" : 1,
                        "TEXCOORD_0" : 2,
                        "TEXCOORD_1" : 3,
                        "JOINTS_0" : 4,
                        "WEIGHTS_0" : 5
                    },
                    "indices" : 6,
                    "material" : 0
                }
            ]
        }
    ],
    "textures" : [
        {
            "sampler" : 0,
            "source" : 0
        },
        {
            "sampler" : 0,
            "source" : 1
        }
    ],
    "images" : [
        {
            "bufferView" : 7,
            "mimeType" : "image/png",
            "name" : "Image_0"
        },
        {
            "bufferView" : 8,
            "mimeType" : "image/png",
            "name" : "Image_1"
        }
    ],
    "skins" : [
        {
            "inverseBindMatrices" : 7,
            "joints" : [
                3,
                2,
                0,
                1
            ],
            "name" : "FoM_Bee_Green-001"
        }
    ],
    "accessors" : [
        {
            "bufferView" : 0,
            "componentType" : 5126,
            "count" : 4825,
            "max" : [
                0.855656623840332,
                1.1223396062850952,
                1.1083706617355347
            ],
            "min" : [
                -0.855656623840332,
                -0.8684559464454651,
                -1.5701285600662231
            ],
            "type" : "VEC3"
        },
        {
            "bufferView" : 1,
            "componentType" : 5126,
            "count" : 4825,
            "type" : "VEC3"
        },
        {
            "bufferView" : 2,
            "componentType" : 5126,
            "count" : 4825,
            "type" : "VEC2"
        },
        {
            "bufferView" : 3,
            "componentType" : 5126,
            "count" : 4825,
            "type" : "VEC2"
        },
        {
            "bufferView" : 4,
            "componentType" : 5121,
            "count" : 4825,
            "type" : "VEC4"
        },
        {
            "bufferView" : 5,
            "componentType" : 5126,
            "count" : 4825,
            "type" : "VEC4"
        },
        {
            "bufferView" : 6,
            "componentType" : 5123,
            "count" : 20304,
            "type" : "SCALAR"
        },
        {
            "bufferView" : 9,
            "componentType" : 5126,
            "count" : 4,
            "type" : "MAT4"
        },
        {
            "bufferView" : 10,
            "componentType" : 5126,
            "count" : 49,
            "max" : [
                2
            ],
            "min" : [
                0
            ],
            "type" : "SCALAR"
        },
        {
            "bufferView" : 11,
            "componentType" : 5126,
            "count" : 49,
            "type" : "VEC4"
        },
        {
            "bufferView" : 12,
            "componentType" : 5126,
            "count" : 49,
            "type" : "VEC4"
        },
        {
            "bufferView" : 13,
            "componentType" : 5126,
            "count" : 49,
            "type" : "VEC3"
        },
        {
            "bufferView" : 14,
            "componentType" : 5126,
            "count" : 49,
            "type" : "VEC4"
        }
    ],
    "bufferViews" : [
        {
            "buffer" : 0,
            "byteLength" : 57900,
            "byteOffset" : 0
        },
        {
            "buffer" : 0,
            "byteLength" : 57900,
            "byteOffset" : 57900
        },
        {
            "buffer" : 0,
            "byteLength" : 38600,
            "byteOffset" : 115800
        },
        {
            "buffer" : 0,
            "byteLength" : 38600,
            "byteOffset" : 154400
        },
        {
            "buffer" : 0,
            "byteLength" : 19300,
            "byteOffset" : 193000
        },
        {
            "buffer" : 0,
            "byteLength" : 77200,
            "byteOffset" : 212300
        },
        {
            "buffer" : 0,
            "byteLength" : 40608,
            "byteOffset" : 289500
        },
        {
            "buffer" : 0,
            "byteLength" : 30583,
            "byteOffset" : 330108
        },
        {
            "buffer" : 0,
            "byteLength" : 5815,
            "byteOffset" : 360692
        },
        {
            "buffer" : 0,
            "byteLength" : 256,
            "byteOffset" : 366508
        },
        {
            "buffer" : 0,
            "byteLength" : 196,
            "byteOffset" : 366764
        },
        {
            "buffer" : 0,
            "byteLength" : 784,
            "byteOffset" : 366960
        },
        {
            "buffer" : 0,
            "byteLength" : 784,
            "byteOffset" : 367744
        },
        {
            "buffer" : 0,
            "byteLength" : 588,
            "byteOffset" : 368528
        },
        {
            "buffer" : 0,
            "byteLength" : 784,
            "byteOffset" : 369116
        }
    ],
    "samplers" : [
        {
            "magFilter" : 9729,
            "minFilter" : 9987
        }
    ],
    "buffers" : [
        {
            "byteLength" : 369900,
            "uri" : "data:application/octet-stream;base64,"
        }
    ]
}
