{
    "asset" : {
        "copyright" : "CultureConnection",
        "generator" : "Khronos glTF Blender I/O v1.8.19",
        "version" : "2.0"
    },
    "scene" : 0,
    "scenes" : [
        {
            "name" : "Scene",
            "nodes" : [
                0
            ]
        }
    ],
    "nodes" : [
        {
            "mesh" : 0,
            "name" : "FoM_ARFilter_Grasshopper_001"
        }
    ],
    "materials" : [
        {
            "doubleSided" : true,
            "name" : "Bee_Blue.002",
            "pbrMetallicRoughness" : {
                "baseColorTexture" : {
                    "index" : 0
                },
                "metallicFactor" : 0,
                "metallicRoughnessTexture" : {
                    "index" : 1
                }
            }
        }
    ],
    "meshes" : [
        {
            "name" : "\ud050\ube0c.013",
            "primitives" : [
                {
                    "attributes" : {
                        "POSITION" : 0,
                        "NORMAL" : 1,
                        "TEXCOORD_0" : 2,
                        "TEXCOORD_1" : 3
                    },
                    "indices" : 4,
                    "material" : 0
                }
            ]
        }
    ],
    "textures" : [
        {
            "sampler" : 0,
            "source" : 0
        },
        {
            "sampler" : 0,
            "source" : 1
        }
    ],
    "images" : [
        {
            "bufferView" : 5,
            "mimeType" : "image/png",
            "name" : "Bee_Blue_Base_color"
        },
        {
            "bufferView" : 6,
            "mimeType" : "image/png",
            "name" : "Bee_Blue_Roughness"
        }
    ],
    "accessors" : [
        {
            "bufferView" : 0,
            "componentType" : 5126,
            "count" : 7246,
            "max" : [
                0.9832962155342102,
                0.3958694040775299,
                0.6988489627838135
            ],
            "min" : [
                -0.843669056892395,
                -0.2902119755744934,
                -0.7465258836746216
            ],
            "type" : "VEC3"
        },
        {
            "bufferView" : 1,
            "componentType" : 5126,
            "count" : 7246,
            "type" : "VEC3"
        },
        {
            "bufferView" : 2,
            "componentType" : 5126,
            "count" : 7246,
            "type" : "VEC2"
        },
        {
            "bufferView" : 3,
            "componentType" : 5126,
            "count" : 7246,
            "type" : "VEC2"
        },
        {
            "bufferView" : 4,
            "componentType" : 5123,
            "count" : 31488,
            "type" : "SCALAR"
        }
    ],
    "bufferViews" : [
        {
            "buffer" : 0,
            "byteLength" : 86952,
            "byteOffset" : 0
        },
        {
            "buffer" : 0,
            "byteLength" : 86952,
            "byteOffset" : 86952
        },
        {
            "buffer" : 0,
            "byteLength" : 57968,
            "byteOffset" : 173904
        },
        {
            "buffer" : 0,
            "byteLength" : 57968,
            "byteOffset" : 231872
        },
        {
            "buffer" : 0,
            "byteLength" : 62976,
            "byteOffset" : 289840
        },
        {
            "buffer" : 0,
            "byteLength" : 13239,
            "byteOffset" : 352816
        },
        {
            "buffer" : 0,
            "byteLength" : 9406,
            "byteOffset" : 366056
        }
    ],
    "samplers" : [
        {
            "magFilter" : 9729,
            "minFilter" : 9987
        }
    ],
    "buffers" : [
        {
            "byteLength" : 375464,
            "uri" : "data:application/octet-stream;base64,"
        }
    ]
}
