{
    "asset" : {
        "copyright" : "CultureConnection",
        "generator" : "Khronos glTF Blender I/O v1.8.19",
        "version" : "2.0"
    },
    "scene" : 0,
    "scenes" : [
        {
            "name" : "Scene",
            "nodes" : [
                0
            ]
        }
    ],
    "nodes" : [
        {
            "mesh" : 0,
            "name" : "FoM_IceHail_TypeB-001",
            "scale" : [
                1.328481912612915,
                1.328481912612915,
                1.328481912612915
            ]
        }
    ],
    "materials" : [
        {
            "name" : "ice",
            "pbrMetallicRoughness" : {
                "baseColorTexture" : {
                    "index" : 0
                },
                "metallicFactor" : 0
            }
        }
    ],
    "meshes" : [
        {
            "name" : "\ud050\ube0c.005",
            "primitives" : [
                {
                    "attributes" : {
                        "POSITION" : 0,
                        "NORMAL" : 1,
                        "TEXCOORD_0" : 2
                    },
                    "indices" : 3,
                    "material" : 0
                }
            ]
        }
    ],
    "textures" : [
        {
            "sampler" : 0,
            "source" : 0
        }
    ],
    "images" : [
        {
            "bufferView" : 4,
            "mimeType" : "image/png",
            "name" : "Image_0"
        }
    ],
    "accessors" : [
        {
            "bufferView" : 0,
            "componentType" : 5126,
            "count" : 244,
            "max" : [
                0.4529072940349579,
                0.6483801007270813,
                0.5236859917640686
            ],
            "min" : [
                -0.592893123626709,
                -0.5254109501838684,
                -0.5033959746360779
            ],
            "type" : "VEC3"
        },
        {
            "bufferView" : 1,
            "componentType" : 5126,
            "count" : 244,
            "type" : "VEC3"
        },
        {
            "bufferView" : 2,
            "componentType" : 5126,
            "count" : 244,
            "type" : "VEC2"
        },
        {
            "bufferView" : 3,
            "componentType" : 5123,
            "count" : 336,
            "type" : "SCALAR"
        }
    ],
    "bufferViews" : [
        {
            "buffer" : 0,
            "byteLength" : 2928,
            "byteOffset" : 0
        },
        {
            "buffer" : 0,
            "byteLength" : 2928,
            "byteOffset" : 2928
        },
        {
            "buffer" : 0,
            "byteLength" : 1952,
            "byteOffset" : 5856
        },
        {
            "buffer" : 0,
            "byteLength" : 672,
            "byteOffset" : 7808
        },
        {
            "buffer" : 0,
            "byteLength" : 218209,
            "byteOffset" : 8480
        }
    ],
    "samplers" : [
        {
            "magFilter" : 9729,
            "minFilter" : 9987
        }
    ],
    "buffers" : [
        {
            "byteLength" : 226692,
            "uri" : "data:application/octet-stream;base64,"
        }
    ]
}
