{
    "asset" : {
        "copyright" : "CultureConnection",
        "generator" : "Khronos glTF Blender I/O v1.8.19",
        "version" : "2.0"
    },
    "scene" : 0,
    "scenes" : [
        {
            "name" : "Scene",
            "nodes" : [
                0,
                1
            ]
        }
    ],
    "nodes" : [
        {
            "mesh" : 0,
            "name" : "FoM_ARFilter_MagicEffect_001"
        },
        {
            "mesh" : 1,
            "name" : "FoM_ARFilter_MagicCircle_001"
        }
    ],
    "animations" : [
        {
            "channels" : [
                {
                    "sampler" : 0,
                    "target" : {
                        "node" : 0,
                        "path" : "rotation"
                    }
                }
            ],
            "name" : "MagicEffectAction.001",
            "samplers" : [
                {
                    "input" : 8,
                    "interpolation" : "LINEAR",
                    "output" : 9
                }
            ]
        },
        {
            "channels" : [
                {
                    "sampler" : 0,
                    "target" : {
                        "node" : 1,
                        "path" : "rotation"
                    }
                }
            ],
            "name" : "MagicCircleAction",
            "samplers" : [
                {
                    "input" : 8,
                    "interpolation" : "LINEAR",
                    "output" : 10
                }
            ]
        }
    ],
    "materials" : [
        {
            "alphaMode" : "BLEND",
            "doubleSided" : true,
            "emissiveFactor" : [
                1,
                1,
                1
            ],
            "emissiveTexture" : {
                "index" : 0
            },
            "name" : "\ub9e4\ud14c\ub9ac\uc5bc.001",
            "pbrMetallicRoughness" : {
                "baseColorTexture" : {
                    "index" : 1
                },
                "metallicFactor" : 0,
                "roughnessFactor" : 0.5
            }
        },
        {
            "alphaMode" : "BLEND",
            "doubleSided" : true,
            "emissiveFactor" : [
                0.699999988079071,
                0.699999988079071,
                0.699999988079071
            ],
            "emissiveTexture" : {
                "index" : 2
            },
            "name" : "Material.005",
            "pbrMetallicRoughness" : {
                "baseColorTexture" : {
                    "index" : 3
                },
                "metallicFactor" : 0,
                "roughnessFactor" : 0.4000000059604645
            }
        }
    ],
    "meshes" : [
        {
            "name" : "\ud3c9\uba74",
            "primitives" : [
                {
                    "attributes" : {
                        "POSITION" : 0,
                        "NORMAL" : 1,
                        "TEXCOORD_0" : 2
                    },
                    "indices" : 3,
                    "material" : 0
                }
            ]
        },
        {
            "name" : "\uc6d0\ud615.012",
            "primitives" : [
                {
                    "attributes" : {
                        "POSITION" : 4,
                        "NORMAL" : 5,
                        "TEXCOORD_0" : 6
                    },
                    "indices" : 7,
                    "material" : 1
                }
            ]
        }
    ],
    "textures" : [
        {
            "sampler" : 0,
            "source" : 0
        },
        {
            "sampler" : 0,
            "source" : 0
        },
        {
            "sampler" : 0,
            "source" : 1
        },
        {
            "sampler" : 0,
            "source" : 1
        }
    ],
    "images" : [
        {
            "bufferView" : 4,
            "mimeType" : "image/png",
            "name" : "colorimg"
        },
        {
            "bufferView" : 9,
            "mimeType" : "image/png",
            "name" : "\u1106\u1161\u1107\u1165\u11b8\u110c\u1175\u11ab_Brown"
        }
    ],
    "accessors" : [
        {
            "bufferView" : 0,
            "componentType" : 5126,
            "count" : 448,
            "max" : [
                0.8044370412826538,
                0.48677942156791687,
                0.7999890446662903
            ],
            "min" : [
                -0.7984179854393005,
                -0.02231518179178238,
                -0.8026880025863647
            ],
            "type" : "VEC3"
        },
        {
            "bufferView" : 1,
            "componentType" : 5126,
            "count" : 448,
            "type" : "VEC3"
        },
        {
            "bufferView" : 2,
            "componentType" : 5126,
            "count" : 448,
            "type" : "VEC2"
        },
        {
            "bufferView" : 3,
            "componentType" : 5123,
            "count" : 672,
            "type" : "SCALAR"
        },
        {
            "bufferView" : 5,
            "componentType" : 5126,
            "count" : 32,
            "max" : [
                0.8421956896781921,
                0,
                0.843866765499115
            ],
            "min" : [
                -0.84822016954422,
                0,
                -0.8465491533279419
            ],
            "type" : "VEC3"
        },
        {
            "bufferView" : 6,
            "componentType" : 5126,
            "count" : 32,
            "type" : "VEC3"
        },
        {
            "bufferView" : 7,
            "componentType" : 5126,
            "count" : 32,
            "type" : "VEC2"
        },
        {
            "bufferView" : 8,
            "componentType" : 5123,
            "count" : 90,
            "type" : "SCALAR"
        },
        {
            "bufferView" : 10,
            "componentType" : 5126,
            "count" : 61,
            "max" : [
                2.5
            ],
            "min" : [
                0
            ],
            "type" : "SCALAR"
        },
        {
            "bufferView" : 11,
            "componentType" : 5126,
            "count" : 61,
            "type" : "VEC4"
        },
        {
            "bufferView" : 12,
            "componentType" : 5126,
            "count" : 61,
            "type" : "VEC4"
        }
    ],
    "bufferViews" : [
        {
            "buffer" : 0,
            "byteLength" : 5376,
            "byteOffset" : 0
        },
        {
            "buffer" : 0,
            "byteLength" : 5376,
            "byteOffset" : 5376
        },
        {
            "buffer" : 0,
            "byteLength" : 3584,
            "byteOffset" : 10752
        },
        {
            "buffer" : 0,
            "byteLength" : 1344,
            "byteOffset" : 14336
        },
        {
            "buffer" : 0,
            "byteLength" : 90439,
            "byteOffset" : 15680
        },
        {
            "buffer" : 0,
            "byteLength" : 384,
            "byteOffset" : 106120
        },
        {
            "buffer" : 0,
            "byteLength" : 384,
            "byteOffset" : 106504
        },
        {
            "buffer" : 0,
            "byteLength" : 256,
            "byteOffset" : 106888
        },
        {
            "buffer" : 0,
            "byteLength" : 180,
            "byteOffset" : 107144
        },
        {
            "buffer" : 0,
            "byteLength" : 1408746,
            "byteOffset" : 107324
        },
        {
            "buffer" : 0,
            "byteLength" : 244,
            "byteOffset" : 1516072
        },
        {
            "buffer" : 0,
            "byteLength" : 976,
            "byteOffset" : 1516316
        },
        {
            "buffer" : 0,
            "byteLength" : 976,
            "byteOffset" : 1517292
        }
    ],
    "samplers" : [
        {
            "magFilter" : 9729,
            "minFilter" : 9987
        }
    ],
    "buffers" : [
        {
            "byteLength" : 1518268,
            "uri" : "data:application/octet-stream;base64,"
        }
    ]
}
