{
    "asset" : {
        "copyright" : "CultureConnection",
        "generator" : "Khronos glTF Blender I/O v1.8.19",
        "version" : "2.0"
    },
    "scene" : 0,
    "scenes" : [
        {
            "name" : "Scene",
            "nodes" : [
                0
            ]
        }
    ],
    "nodes" : [
        {
            "mesh" : 0,
            "name" : "FoM_ARFilter_Tree-001"
        }
    ],
    "materials" : [
        {
            "doubleSided" : true,
            "name" : "Material.001",
            "pbrMetallicRoughness" : {
                "baseColorTexture" : {
                    "index" : 0
                },
                "metallicFactor" : 0,
                "roughnessFactor" : 0.5
            }
        },
        {
            "doubleSided" : true,
            "name" : "Flower",
            "pbrMetallicRoughness" : {
                "baseColorFactor" : [
                    0.800000011920929,
                    0.800000011920929,
                    0.800000011920929,
                    1
                ],
                "metallicFactor" : 0,
                "roughnessFactor" : 0.5
            }
        }
    ],
    "meshes" : [
        {
            "name" : "Mesh.002",
            "primitives" : [
                {
                    "attributes" : {
                        "POSITION" : 0,
                        "NORMAL" : 1,
                        "TEXCOORD_0" : 2
                    },
                    "indices" : 3,
                    "material" : 0
                },
                {
                    "attributes" : {
                        "POSITION" : 4,
                        "NORMAL" : 5,
                        "TEXCOORD_0" : 6
                    },
                    "indices" : 7,
                    "material" : 1
                }
            ]
        }
    ],
    "textures" : [
        {
            "sampler" : 0,
            "source" : 0
        }
    ],
    "images" : [
        {
            "bufferView" : 4,
            "mimeType" : "image/png",
            "name" : "Image_0"
        }
    ],
    "accessors" : [
        {
            "bufferView" : 0,
            "componentType" : 5126,
            "count" : 4567,
            "max" : [
                0.9037927985191345,
                0.9852230548858643,
                0.3571036159992218
            ],
            "min" : [
                -0.9958047866821289,
                -0.990436851978302,
                -0.6789771914482117
            ],
            "type" : "VEC3"
        },
        {
            "bufferView" : 1,
            "componentType" : 5126,
            "count" : 4567,
            "type" : "VEC3"
        },
        {
            "bufferView" : 2,
            "componentType" : 5126,
            "count" : 4567,
            "type" : "VEC2"
        },
        {
            "bufferView" : 3,
            "componentType" : 5123,
            "count" : 18264,
            "type" : "SCALAR"
        },
        {
            "bufferView" : 5,
            "componentType" : 5126,
            "count" : 6293,
            "max" : [
                0.7454323768615723,
                0.9265978932380676,
                0.3631718158721924
            ],
            "min" : [
                -0.851800262928009,
                -0.22894464433193207,
                -0.3852299153804779
            ],
            "type" : "VEC3"
        },
        {
            "bufferView" : 6,
            "componentType" : 5126,
            "count" : 6293,
            "type" : "VEC3"
        },
        {
            "bufferView" : 7,
            "componentType" : 5126,
            "count" : 6293,
            "type" : "VEC2"
        },
        {
            "bufferView" : 8,
            "componentType" : 5123,
            "count" : 14784,
            "type" : "SCALAR"
        }
    ],
    "bufferViews" : [
        {
            "buffer" : 0,
            "byteLength" : 54804,
            "byteOffset" : 0
        },
        {
            "buffer" : 0,
            "byteLength" : 54804,
            "byteOffset" : 54804
        },
        {
            "buffer" : 0,
            "byteLength" : 36536,
            "byteOffset" : 109608
        },
        {
            "buffer" : 0,
            "byteLength" : 36528,
            "byteOffset" : 146144
        },
        {
            "buffer" : 0,
            "byteLength" : 237,
            "byteOffset" : 182672
        },
        {
            "buffer" : 0,
            "byteLength" : 75516,
            "byteOffset" : 182912
        },
        {
            "buffer" : 0,
            "byteLength" : 75516,
            "byteOffset" : 258428
        },
        {
            "buffer" : 0,
            "byteLength" : 50344,
            "byteOffset" : 333944
        },
        {
            "buffer" : 0,
            "byteLength" : 29568,
            "byteOffset" : 384288
        }
    ],
    "samplers" : [
        {
            "magFilter" : 9729,
            "minFilter" : 9987
        }
    ],
    "buffers" : [
        {
            "byteLength" : 413856,
            "uri" : "data:application/octet-stream;base64,"
        }
    ]
}
