{
	"asset":{
		"copyright":"CultureConnection",
		"generator":"Khronos glTF Blender I/O v3.6.27",
		"version":"2.0"
	},
	"scene":0,
	"scenes":[
		{
			"name":"Scene",
			"nodes":[
				0
			]
		}
	],
	"nodes":[
		{
			"mesh":0,
			"name":"Avocado"
		}
	],
	"materials":[
		{
			"doubleSided":true,
			"name":"Props.004",
			"pbrMetallicRoughness":{
				"baseColorTexture":{
					"index":0
				},
				"metallicFactor":0,
				"roughnessFactor":0.5
			}
		}
	],
	"meshes":[
		{
			"name":"\uc6d0\ud615.001",
			"primitives":[
				{
					"attributes":{
						"POSITION":0,
						"NORMAL":1,
						"TEXCOORD_0":2
					},
					"indices":3,
					"material":0
				}
			]
		}
	],
	"textures":[
		{
			"sampler":0,
			"source":0
		}
	],
	"images":[
		{
			"bufferView":4,
			"mimeType":"image/png",
			"name":"DefaultMaterial_Base_color.png"
		}
	],
	"accessors":[
		{
			"bufferView":0,
			"componentType":5126,
			"count":2173,
			"max":[
				0.3348054885864258,
				0.4890657961368561,
				0.21950697898864746
			],
			"min":[
				-0.3348093032836914,
				-0.4991994798183441,
				-0.18906435370445251
			],
			"type":"VEC3"
		},
		{
			"bufferView":1,
			"componentType":5126,
			"count":2173,
			"type":"VEC3"
		},
		{
			"bufferView":2,
			"componentType":5126,
			"count":2173,
			"type":"VEC2"
		},
		{
			"bufferView":3,
			"componentType":5123,
			"count":11748,
			"type":"SCALAR"
		}
	],
	"bufferViews":[
		{
			"buffer":0,
			"byteLength":26076,
			"byteOffset":0,
			"target":34962
		},
		{
			"buffer":0,
			"byteLength":26076,
			"byteOffset":26076,
			"target":34962
		},
		{
			"buffer":0,
			"byteLength":17384,
			"byteOffset":52152,
			"target":34962
		},
		{
			"buffer":0,
			"byteLength":23496,
			"byteOffset":69536,
			"target":34963
		},
		{
			"buffer":0,
			"byteLength":79651,
			"byteOffset":93032
		}
	],
	"samplers":[
		{
			"magFilter":9729,
			"minFilter":9987
		}
	],
	"buffers":[
		{
			"byteLength":172684,
			"uri":"data:application/octet-stream;base64,"
		}
	]
}
