{
	"asset":{
		"copyright":"CultureConnection",
		"generator":"Khronos glTF Blender I/O v3.6.27",
		"version":"2.0"
	},
	"scene":0,
	"scenes":[
		{
			"name":"Scene",
			"nodes":[
				0
			]
		}
	],
	"nodes":[
		{
			"mesh":0,
			"name":"BlueBerry"
		}
	],
	"materials":[
		{
			"doubleSided":true,
			"name":"Props.004",
			"pbrMetallicRoughness":{
				"baseColorTexture":{
					"index":0
				},
				"metallicFactor":0,
				"roughnessFactor":0.5
			}
		}
	],
	"meshes":[
		{
			"name":"Torus",
			"primitives":[
				{
					"attributes":{
						"POSITION":0,
						"NORMAL":1,
						"TEXCOORD_0":2
					},
					"indices":3,
					"material":0
				}
			]
		}
	],
	"textures":[
		{
			"sampler":0,
			"source":0
		}
	],
	"images":[
		{
			"bufferView":4,
			"mimeType":"image/png",
			"name":"DefaultMaterial_Base_color.png"
		}
	],
	"accessors":[
		{
			"bufferView":0,
			"componentType":5126,
			"count":661,
			"max":[
				0.44119709730148315,
				0.28547391295433044,
				0.30887874960899353
			],
			"min":[
				-0.4411984086036682,
				-0.48636409640312195,
				-0.4891431927680969
			],
			"type":"VEC3"
		},
		{
			"bufferView":1,
			"componentType":5126,
			"count":661,
			"type":"VEC3"
		},
		{
			"bufferView":2,
			"componentType":5126,
			"count":661,
			"type":"VEC2"
		},
		{
			"bufferView":3,
			"componentType":5123,
			"count":3456,
			"type":"SCALAR"
		}
	],
	"bufferViews":[
		{
			"buffer":0,
			"byteLength":7932,
			"byteOffset":0,
			"target":34962
		},
		{
			"buffer":0,
			"byteLength":7932,
			"byteOffset":7932,
			"target":34962
		},
		{
			"buffer":0,
			"byteLength":5288,
			"byteOffset":15864,
			"target":34962
		},
		{
			"buffer":0,
			"byteLength":6912,
			"byteOffset":21152,
			"target":34963
		},
		{
			"buffer":0,
			"byteLength":79651,
			"byteOffset":28064
		}
	],
	"samplers":[
		{
			"magFilter":9729,
			"minFilter":9987
		}
	],
	"buffers":[
		{
			"byteLength":107716,
			"uri":"data:application/octet-stream;base64,"
		}
	]
}
