{
	"asset":{
		"copyright":"CultureConnection",
		"generator":"Khronos glTF Blender I/O v3.6.27",
		"version":"2.0"
	},
	"scene":0,
	"scenes":[
		{
			"name":"Scene",
			"nodes":[
				4
			]
		}
	],
	"nodes":[
		{
			"name":"Top",
			"rotation":[
				0,
				1.1920925402364446e-07,
				0,
				1
			],
			"translation":[
				0,
				0.8427218794822693,
				0
			]
		},
		{
			"children":[
				0
			],
			"name":"Bottom",
			"translation":[
				0,
				-0.5557242035865784,
				0
			]
		},
		{
			"mesh":0,
			"name":"Bottom",
			"skin":0
		},
		{
			"mesh":1,
			"name":"Top",
			"skin":0
		},
		{
			"children":[
				2,
				3,
				1
			],
			"name":"Cauldron"
		}
	],
	"materials":[
		{
			"doubleSided":true,
			"name":"Props",
			"pbrMetallicRoughness":{
				"baseColorTexture":{
					"index":0
				},
				"metallicFactor":0,
				"roughnessFactor":0.5
			}
		}
	],
	"meshes":[
		{
			"name":"\uc6d0\ud615",
			"primitives":[
				{
					"attributes":{
						"POSITION":0,
						"NORMAL":1,
						"TEXCOORD_0":2,
						"JOINTS_0":3,
						"WEIGHTS_0":4
					},
					"indices":5,
					"material":0
				}
			]
		},
		{
			"name":"\uc6d0\ud615.001",
			"primitives":[
				{
					"attributes":{
						"POSITION":7,
						"NORMAL":8,
						"TEXCOORD_0":9,
						"JOINTS_0":10,
						"WEIGHTS_0":11
					},
					"indices":12,
					"material":0
				}
			]
		}
	],
	"textures":[
		{
			"sampler":0,
			"source":0
		}
	],
	"images":[
		{
			"bufferView":6,
			"mimeType":"image/png",
			"name":"DefaultMaterial_Base_color.png"
		}
	],
	"skins":[
		{
			"inverseBindMatrices":6,
			"joints":[
				1,
				0
			],
			"name":"Cauldron"
		}
	],
	"accessors":[
		{
			"bufferView":0,
			"componentType":5126,
			"count":1716,
			"max":[
				0.9855912327766418,
				0.25091707706451416,
				0.9828770756721497
			],
			"min":[
				-0.9855906963348389,
				-0.623058557510376,
				-0.9883049726486206
			],
			"type":"VEC3"
		},
		{
			"bufferView":1,
			"componentType":5126,
			"count":1716,
			"type":"VEC3"
		},
		{
			"bufferView":2,
			"componentType":5126,
			"count":1716,
			"type":"VEC2"
		},
		{
			"bufferView":3,
			"componentType":5121,
			"count":1716,
			"type":"VEC4"
		},
		{
			"bufferView":4,
			"componentType":5126,
			"count":1716,
			"type":"VEC4"
		},
		{
			"bufferView":5,
			"componentType":5123,
			"count":9600,
			"type":"SCALAR"
		},
		{
			"bufferView":7,
			"componentType":5126,
			"count":2,
			"type":"MAT4"
		},
		{
			"bufferView":8,
			"componentType":5126,
			"count":914,
			"max":[
				0.8404560089111328,
				0.6054906845092773,
				0.8404563069343567
			],
			"min":[
				-0.8404566049575806,
				0.23730263113975525,
				-0.8404563069343567
			],
			"type":"VEC3"
		},
		{
			"bufferView":9,
			"componentType":5126,
			"count":914,
			"type":"VEC3"
		},
		{
			"bufferView":10,
			"componentType":5126,
			"count":914,
			"type":"VEC2"
		},
		{
			"bufferView":11,
			"componentType":5121,
			"count":914,
			"type":"VEC4"
		},
		{
			"bufferView":12,
			"componentType":5126,
			"count":914,
			"type":"VEC4"
		},
		{
			"bufferView":13,
			"componentType":5123,
			"count":4212,
			"type":"SCALAR"
		}
	],
	"bufferViews":[
		{
			"buffer":0,
			"byteLength":20592,
			"byteOffset":0,
			"target":34962
		},
		{
			"buffer":0,
			"byteLength":20592,
			"byteOffset":20592,
			"target":34962
		},
		{
			"buffer":0,
			"byteLength":13728,
			"byteOffset":41184,
			"target":34962
		},
		{
			"buffer":0,
			"byteLength":6864,
			"byteOffset":54912,
			"target":34962
		},
		{
			"buffer":0,
			"byteLength":27456,
			"byteOffset":61776,
			"target":34962
		},
		{
			"buffer":0,
			"byteLength":19200,
			"byteOffset":89232,
			"target":34963
		},
		{
			"buffer":0,
			"byteLength":79651,
			"byteOffset":108432
		},
		{
			"buffer":0,
			"byteLength":128,
			"byteOffset":188084
		},
		{
			"buffer":0,
			"byteLength":10968,
			"byteOffset":188212,
			"target":34962
		},
		{
			"buffer":0,
			"byteLength":10968,
			"byteOffset":199180,
			"target":34962
		},
		{
			"buffer":0,
			"byteLength":7312,
			"byteOffset":210148,
			"target":34962
		},
		{
			"buffer":0,
			"byteLength":3656,
			"byteOffset":217460,
			"target":34962
		},
		{
			"buffer":0,
			"byteLength":14624,
			"byteOffset":221116,
			"target":34962
		},
		{
			"buffer":0,
			"byteLength":8424,
			"byteOffset":235740,
			"target":34963
		}
	],
	"samplers":[
		{
			"magFilter":9729,
			"minFilter":9987
		}
	],
	"buffers":[
		{
			"byteLength":244164,
			"uri":"data:application/octet-stream;base64,"
		}
	]
}
