{
    "asset" : {
        "copyright" : "CultureConnection",
        "generator" : "Khronos glTF Blender I/O v1.8.19",
        "version" : "2.0"
    },
    "scene" : 0,
    "scenes" : [
        {
            "name" : "Scene",
            "nodes" : [
                0
            ]
        }
    ],
    "nodes" : [
        {
            "mesh" : 0,
            "name" : "Air_Pocket"
        }
    ],
    "materials" : [
        {
            "doubleSided" : true,
            "name" : "\ub9e4\ud14c\ub9ac\uc5bc",
            "pbrMetallicRoughness" : {
                "baseColorTexture" : {
                    "index" : 0
                },
                "metallicFactor" : 0,
                "roughnessFactor" : 0.5
            }
        }
    ],
    "meshes" : [
        {
            "name" : "Mesh.045",
            "primitives" : [
                {
                    "attributes" : {
                        "POSITION" : 0,
                        "NORMAL" : 1,
                        "TEXCOORD_0" : 2,
                        "TEXCOORD_1" : 3,
                        "COLOR_0" : 4
                    },
                    "indices" : 5,
                    "material" : 0
                }
            ]
        }
    ],
    "textures" : [
        {
            "sampler" : 0,
            "source" : 0
        }
    ],
    "images" : [
        {
            "bufferView" : 6,
            "mimeType" : "image/png",
            "name" : "Image_0"
        }
    ],
    "accessors" : [
        {
            "bufferView" : 0,
            "componentType" : 5126,
            "count" : 272,
            "max" : [
                0.9110078811645508,
                0.9077225923538208,
                0.8074591159820557
            ],
            "min" : [
                -0.8211556673049927,
                -0.5988578796386719,
                -0.6339282989501953
            ],
            "type" : "VEC3"
        },
        {
            "bufferView" : 1,
            "componentType" : 5126,
            "count" : 272,
            "type" : "VEC3"
        },
        {
            "bufferView" : 2,
            "componentType" : 5126,
            "count" : 272,
            "type" : "VEC2"
        },
        {
            "bufferView" : 3,
            "componentType" : 5126,
            "count" : 272,
            "type" : "VEC2"
        },
        {
            "bufferView" : 4,
            "componentType" : 5123,
            "count" : 272,
            "normalized" : true,
            "type" : "VEC4"
        },
        {
            "bufferView" : 5,
            "componentType" : 5123,
            "count" : 948,
            "type" : "SCALAR"
        }
    ],
    "bufferViews" : [
        {
            "buffer" : 0,
            "byteLength" : 3264,
            "byteOffset" : 0
        },
        {
            "buffer" : 0,
            "byteLength" : 3264,
            "byteOffset" : 3264
        },
        {
            "buffer" : 0,
            "byteLength" : 2176,
            "byteOffset" : 6528
        },
        {
            "buffer" : 0,
            "byteLength" : 2176,
            "byteOffset" : 8704
        },
        {
            "buffer" : 0,
            "byteLength" : 2176,
            "byteOffset" : 10880
        },
        {
            "buffer" : 0,
            "byteLength" : 1896,
            "byteOffset" : 13056
        },
        {
            "buffer" : 0,
            "byteLength" : 8080,
            "byteOffset" : 14952
        }
    ],
    "samplers" : [
        {
            "magFilter" : 9729,
            "minFilter" : 9987
        }
    ],
    "buffers" : [
        {
            "byteLength" : 23032,
            "uri" : "data:application/octet-stream;base64,"
        }
    ]
}
