{
    "asset" : {
        "copyright" : "CultureConnection",
        "generator" : "Khronos glTF Blender I/O v1.8.19",
        "version" : "2.0"
    },
    "scene" : 0,
    "scenes" : [
        {
            "name" : "Scene",
            "nodes" : [
                4
            ]
        }
    ],
    "nodes" : [
        {
            "name" : "Broom",
            "rotation" : [
                0.033122047781944275,
                -2.916754340276384e-07,
                0.04551684111356735,
                0.9984143376350403
            ],
            "scale" : [
                0.9999999403953552,
                0.9999999403953552,
                0.9999997615814209
            ],
            "translation" : [
                1.371962473370545e-14,
                1.4224040508270264,
                -5.329070941717225e-15
            ]
        },
        {
            "children" : [
                0
            ],
            "name" : "Stick",
            "rotation" : [
                0.9509410262107849,
                -3.237519052845528e-08,
                -0.30937251448631287,
                3.368363010736175e-08
            ],
            "scale" : [
                0.9999998807907104,
                0.9999999403953552,
                0.9999998807907104
            ],
            "translation" : [
                3.423889438636252e-08,
                0.8605523109436035,
                1.052425133707402e-07
            ]
        },
        {
            "mesh" : 0,
            "name" : "BroomStick",
            "skin" : 0
        },
        {
            "mesh" : 1,
            "name" : "Star",
            "skin" : 0
        },
        {
            "children" : [
                2,
                3,
                1
            ],
            "name" : "FoM_Trash_BroomStick-001"
        }
    ],
    "animations" : [
        {
            "channels" : [
                {
                    "sampler" : 0,
                    "target" : {
                        "node" : 0,
                        "path" : "rotation"
                    }
                }
            ],
            "name" : "FoM_Trash_BroomStick-001Action",
            "samplers" : [
                {
                    "input" : 17,
                    "interpolation" : "LINEAR",
                    "output" : 18
                }
            ]
        },
        {
            "channels" : [
                {
                    "sampler" : 0,
                    "target" : {
                        "node" : 3,
                        "path" : "weights"
                    }
                }
            ],
            "name" : "KeyAction",
            "samplers" : [
                {
                    "input" : 19,
                    "interpolation" : "LINEAR",
                    "output" : 20
                }
            ]
        },
        {
            "channels" : [
                {
                    "sampler" : 0,
                    "target" : {
                        "node" : 3,
                        "path" : "weights"
                    }
                }
            ],
            "name" : "\ud3c9\uba74.004Action.001",
            "samplers" : [
                {
                    "input" : 17,
                    "interpolation" : "LINEAR",
                    "output" : 21
                }
            ]
        }
    ],
    "materials" : [
        {
            "doubleSided" : true,
            "name" : "Props",
            "pbrMetallicRoughness" : {
                "baseColorTexture" : {
                    "index" : 0
                },
                "metallicFactor" : 0,
                "roughnessFactor" : 0.5
            }
        },
        {
            "doubleSided" : true,
            "name" : "Props.002",
            "pbrMetallicRoughness" : {
                "baseColorTexture" : {
                    "index" : 1
                },
                "metallicFactor" : 0,
                "roughnessFactor" : 0.5
            }
        }
    ],
    "meshes" : [
        {
            "name" : "\uc2e4\ub9b0\ub354.003",
            "primitives" : [
                {
                    "attributes" : {
                        "POSITION" : 0,
                        "NORMAL" : 1,
                        "TEXCOORD_0" : 2,
                        "JOINTS_0" : 3,
                        "WEIGHTS_0" : 4
                    },
                    "indices" : 5,
                    "material" : 0
                }
            ]
        },
        {
            "extras" : {
                "targetNames" : [
                    "Star1",
                    "Star2"
                ]
            },
            "name" : "\ud3c9\uba74.004",
            "primitives" : [
                {
                    "attributes" : {
                        "POSITION" : 7,
                        "NORMAL" : 8,
                        "TEXCOORD_0" : 9,
                        "JOINTS_0" : 10,
                        "WEIGHTS_0" : 11
                    },
                    "indices" : 12,
                    "material" : 1,
                    "targets" : [
                        {
                            "POSITION" : 13,
                            "NORMAL" : 14
                        },
                        {
                            "POSITION" : 15,
                            "NORMAL" : 16
                        }
                    ]
                }
            ],
            "weights" : [
                0.7254902124404907,
                0
            ]
        }
    ],
    "textures" : [
        {
            "sampler" : 0,
            "source" : 0
        },
        {
            "sampler" : 0,
            "source" : 0
        }
    ],
    "images" : [
        {
            "bufferView" : 6,
            "mimeType" : "image/png",
            "name" : "Image_0"
        }
    ],
    "skins" : [
        {
            "inverseBindMatrices" : 6,
            "joints" : [
                1,
                0
            ],
            "name" : "FoM_Trash_BroomStick-001"
        }
    ],
    "accessors" : [
        {
            "bufferView" : 0,
            "componentType" : 5126,
            "count" : 1579,
            "max" : [
                0.20584559440612793,
                0.9692345857620239,
                0.18275436758995056
            ],
            "min" : [
                -0.15534190833568573,
                -0.9739826917648315,
                -0.178786963224411
            ],
            "type" : "VEC3"
        },
        {
            "bufferView" : 1,
            "componentType" : 5126,
            "count" : 1579,
            "type" : "VEC3"
        },
        {
            "bufferView" : 2,
            "componentType" : 5126,
            "count" : 1579,
            "type" : "VEC2"
        },
        {
            "bufferView" : 3,
            "componentType" : 5121,
            "count" : 1579,
            "type" : "VEC4"
        },
        {
            "bufferView" : 4,
            "componentType" : 5126,
            "count" : 1579,
            "type" : "VEC4"
        },
        {
            "bufferView" : 5,
            "componentType" : 5123,
            "count" : 7608,
            "type" : "SCALAR"
        },
        {
            "bufferView" : 7,
            "componentType" : 5126,
            "count" : 2,
            "type" : "MAT4"
        },
        {
            "bufferView" : 8,
            "componentType" : 5126,
            "count" : 96,
            "max" : [
                0.4264497458934784,
                -0.6215373277664185,
                0.018301421776413918
            ],
            "min" : [
                -0.32266414165496826,
                -0.9277385473251343,
                -0.018301555886864662
            ],
            "type" : "VEC3"
        },
        {
            "bufferView" : 9,
            "componentType" : 5126,
            "count" : 96,
            "type" : "VEC3"
        },
        {
            "bufferView" : 10,
            "componentType" : 5126,
            "count" : 96,
            "type" : "VEC2"
        },
        {
            "bufferView" : 11,
            "componentType" : 5121,
            "count" : 96,
            "type" : "VEC4"
        },
        {
            "bufferView" : 12,
            "componentType" : 5126,
            "count" : 96,
            "type" : "VEC4"
        },
        {
            "bufferView" : 13,
            "componentType" : 5123,
            "count" : 96,
            "type" : "SCALAR"
        },
        {
            "bufferView" : 14,
            "componentType" : 5126,
            "count" : 96,
            "max" : [
                0.05347827076911926,
                0.053478360176086426,
                0.013565607368946075
            ],
            "min" : [
                -0.05347833037376404,
                -0.05347830057144165,
                -0.0135656064376235
            ],
            "type" : "VEC3"
        },
        {
            "bufferView" : 15,
            "componentType" : 5126,
            "count" : 96,
            "type" : "VEC3"
        },
        {
            "bufferView" : 16,
            "componentType" : 5126,
            "count" : 96,
            "max" : [
                0.06011894345283508,
                0.06011909246444702,
                0.015250125899910927
            ],
            "min" : [
                -0.060119062662124634,
                -0.060118913650512695,
                -0.015250123105943203
            ],
            "type" : "VEC3"
        },
        {
            "bufferView" : 17,
            "componentType" : 5126,
            "count" : 96,
            "type" : "VEC3"
        },
        {
            "bufferView" : 18,
            "componentType" : 5126,
            "count" : 61,
            "max" : [
                2.5
            ],
            "min" : [
                0
            ],
            "type" : "SCALAR"
        },
        {
            "bufferView" : 19,
            "componentType" : 5126,
            "count" : 61,
            "type" : "VEC4"
        },
        {
            "bufferView" : 20,
            "componentType" : 5126,
            "count" : 51,
            "max" : [
                2.0833333333333335
            ],
            "min" : [
                0
            ],
            "type" : "SCALAR"
        },
        {
            "bufferView" : 21,
            "componentType" : 5126,
            "count" : 102,
            "type" : "SCALAR"
        },
        {
            "bufferView" : 22,
            "componentType" : 5126,
            "count" : 122,
            "type" : "SCALAR"
        }
    ],
    "bufferViews" : [
        {
            "buffer" : 0,
            "byteLength" : 18948,
            "byteOffset" : 0
        },
        {
            "buffer" : 0,
            "byteLength" : 18948,
            "byteOffset" : 18948
        },
        {
            "buffer" : 0,
            "byteLength" : 12632,
            "byteOffset" : 37896
        },
        {
            "buffer" : 0,
            "byteLength" : 6316,
            "byteOffset" : 50528
        },
        {
            "buffer" : 0,
            "byteLength" : 25264,
            "byteOffset" : 56844
        },
        {
            "buffer" : 0,
            "byteLength" : 15216,
            "byteOffset" : 82108
        },
        {
            "buffer" : 0,
            "byteLength" : 79651,
            "byteOffset" : 97324
        },
        {
            "buffer" : 0,
            "byteLength" : 128,
            "byteOffset" : 176976
        },
        {
            "buffer" : 0,
            "byteLength" : 1152,
            "byteOffset" : 177104
        },
        {
            "buffer" : 0,
            "byteLength" : 1152,
            "byteOffset" : 178256
        },
        {
            "buffer" : 0,
            "byteLength" : 768,
            "byteOffset" : 179408
        },
        {
            "buffer" : 0,
            "byteLength" : 384,
            "byteOffset" : 180176
        },
        {
            "buffer" : 0,
            "byteLength" : 1536,
            "byteOffset" : 180560
        },
        {
            "buffer" : 0,
            "byteLength" : 192,
            "byteOffset" : 182096
        },
        {
            "buffer" : 0,
            "byteLength" : 1152,
            "byteOffset" : 182288
        },
        {
            "buffer" : 0,
            "byteLength" : 1152,
            "byteOffset" : 183440
        },
        {
            "buffer" : 0,
            "byteLength" : 1152,
            "byteOffset" : 184592
        },
        {
            "buffer" : 0,
            "byteLength" : 1152,
            "byteOffset" : 185744
        },
        {
            "buffer" : 0,
            "byteLength" : 244,
            "byteOffset" : 186896
        },
        {
            "buffer" : 0,
            "byteLength" : 976,
            "byteOffset" : 187140
        },
        {
            "buffer" : 0,
            "byteLength" : 204,
            "byteOffset" : 188116
        },
        {
            "buffer" : 0,
            "byteLength" : 408,
            "byteOffset" : 188320
        },
        {
            "buffer" : 0,
            "byteLength" : 488,
            "byteOffset" : 188728
        }
    ],
    "samplers" : [
        {
            "magFilter" : 9729,
            "minFilter" : 9987
        }
    ],
    "buffers" : [
        {
            "byteLength" : 189216,
            "uri" : "data:application/octet-stream;base64,"
        }
    ]
}
